<svg xmlns="http://www.w3.org/2000/svg" width="1600" height="520" viewBox="0 0 1600 520">
  <defs>
    <linearGradient id="g" x1="0" y1="0" x2="1" y2="1">
      <stop offset="0" stop-color="#0f1b33"/>
      <stop offset="0.55" stop-color="#102a56"/>
      <stop offset="1" stop-color="#2563eb"/>
    </linearGradient>
  </defs>
  <rect width="1600" height="520" fill="url(#g)"/>
  <circle cx="1320" cy="110" r="150" fill="#ffffff" opacity="0.08"/>
  <circle cx="1450" cy="420" r="220" fill="#ffffff" opacity="0.06"/>
  <rect x="110" y="92" width="74" height="74" rx="18" fill="#2f6bff"/>
  <path d="M147 116 L147 145 M132 130 L162 130 M135 152 C150 168 175 154 162 137" fill="none" stroke="#fff" stroke-width="7" stroke-linecap="round"/>
  <text x="110" y="235" font-family="Arial, Helvetica, sans-serif" font-size="58" font-weight="800" fill="#ffffff">FeCarlos - Concilia</text>
  <text x="110" y="298" font-family="Arial, Helvetica, sans-serif" font-size="32" font-weight="700" fill="#b8d4ff">Inteligência Fiscal • Automação • Dashboard</text>
  <text x="110" y="365" font-family="Arial, Helvetica, sans-serif" font-size="24" fill="#e7f0ff">Plataforma para conciliação inteligente de NFS-e entre Portal Nacional e ERP Omega</text>
  <g font-family="Arial, Helvetica, sans-serif" font-size="21" font-weight="700">
    <rect x="110" y="410" width="116" height="42" rx="21" fill="#ffffff" opacity="0.14"/><text x="137" y="438" fill="#ffffff">Python</text>
    <rect x="244" y="410" width="104" height="42" rx="21" fill="#ffffff" opacity="0.14"/><text x="274" y="438" fill="#ffffff">React</text>
    <rect x="366" y="410" width="124" height="42" rx="21" fill="#ffffff" opacity="0.14"/><text x="390" y="438" fill="#ffffff">FastAPI</text>
    <rect x="508" y="410" width="106" height="42" rx="21" fill="#ffffff" opacity="0.14"/><text x="535" y="438" fill="#ffffff">Docker</text>
  </g>
  <rect x="1070" y="135" width="360" height="240" rx="24" fill="#ffffff" opacity="0.95"/>
  <text x="1110" y="190" font-family="Arial" font-size="18" fill="#2563eb" font-weight="800">Dashboard Executivo</text>
  <rect x="1110" y="220" width="130" height="82" rx="12" fill="#eff6ff"/>
  <rect x="1260" y="220" width="130" height="82" rx="12" fill="#f0fdf4"/>
  <rect x="1110" y="320" width="280" height="18" rx="9" fill="#dbeafe"/>
  <rect x="1110" y="320" width="218" height="18" rx="9" fill="#2563eb"/>
</svg>
