<svg xmlns="http://www.w3.org/2000/svg" width="1200" height="720" viewBox="0 0 1200 720">
  <rect width="1200" height="720" fill="#f8fafc"/>
  <text x="100" y="90" font-family="Arial" font-size="32" fill="#0f172a" font-weight="700">Relatórios Gerenciais</text>
  <text x="100" y="122" font-family="Arial" font-size="15" fill="#64748b">Exportação segmentada para Excel e PDF.</text>
  <rect x="130" y="170" width="430" height="390" rx="16" fill="#fff" stroke="#d7dfec"/>
  <text x="170" y="225" font-family="Arial" font-size="24" fill="#0f172a" font-weight="700">Excel detalhado</text>
  <text x="170" y="265" font-family="Arial" font-size="15" fill="#64748b">Abas separadas por análise fiscal.</text>
  <rect x="170" y="310" width="310" height="36" rx="8" fill="#eef6ff"/><text x="190" y="333" font-family="Arial" font-size="13" fill="#2563eb">Conciliação das notas</text>
  <rect x="170" y="360" width="310" height="36" rx="8" fill="#eef6ff"/><text x="190" y="383" font-family="Arial" font-size="13" fill="#2563eb">Análise do ISS</text>
  <rect x="170" y="410" width="310" height="36" rx="8" fill="#eef6ff"/><text x="190" y="433" font-family="Arial" font-size="13" fill="#2563eb">Gestão PCC</text>
  <rect x="170" y="475" width="190" height="48" rx="10" fill="#2563eb"/><text x="218" y="505" font-family="Arial" font-size="15" fill="#fff" font-weight="700">Exportar</text>
  <rect x="640" y="170" width="430" height="390" rx="16" fill="#fff" stroke="#d7dfec"/>
  <text x="680" y="225" font-family="Arial" font-size="24" fill="#0f172a" font-weight="700">PDF executivo</text>
  <text x="680" y="265" font-family="Arial" font-size="15" fill="#64748b">Resumo visual para compartilhamento.</text>
  <rect x="680" y="310" width="310" height="12" rx="6" fill="#dbeafe"/>
  <rect x="680" y="345" width="240" height="12" rx="6" fill="#dbeafe"/>
  <rect x="680" y="380" width="280" height="12" rx="6" fill="#dbeafe"/>
  <rect x="680" y="475" width="190" height="48" rx="10" fill="#2563eb"/><text x="728" y="505" font-family="Arial" font-size="15" fill="#fff" font-weight="700">Gerar PDF</text>
</svg>
